REM DIRINDEX 1\2\6,1\2\7,1\2\8,1\2\9,1\3\10,1\3\11,1\4\12,1\4\13,1\4\14,1\5\15,1\5\16,1\5\17
REM DIRNAME folder01,folder02,folder03,folder04,folder05,folder06,folder07,folder08,folder09,folder10,folder11,folder12,folder13,folder14,folder15,folder16,folder17
TITLE ""
FILE "1400_3_sec13_1233_1248.mp3" MP3
  TRACK 01 AUDIO
    TITLE "0:"
    INDEX 01 00:00:00
  TRACK 02 AUDIO
    TITLE "17:cjc029_6906"
    INDEX 01 00:00:15
  TRACK 03 AUDIO
    TITLE "0:"
    INDEX 01 00:02:43
  TRACK 04 AUDIO
    TITLE "16:cjc029_6907"
    INDEX 01 00:02:47
  TRACK 05 AUDIO
    TITLE "0:"
    INDEX 01 00:03:53
  TRACK 06 AUDIO
    TITLE "17:cjc029_6908"
    INDEX 01 00:04:36
  TRACK 07 AUDIO
    TITLE "0:"
    INDEX 01 00:05:38
  TRACK 08 AUDIO
    TITLE "16:cjc029_6909"
    INDEX 01 00:05:44
  TRACK 09 AUDIO
    TITLE "0:"
    INDEX 01 00:06:59
  TRACK 10 AUDIO
    TITLE "17:cjc029_6910"
    INDEX 01 00:07:41
  TRACK 11 AUDIO
    TITLE "0:"
    INDEX 01 00:08:50
  TRACK 12 AUDIO
    TITLE "16:cjc029_6911"
    INDEX 01 00:08:58
  TRACK 13 AUDIO
    TITLE "0:"
    INDEX 01 00:09:73
  TRACK 14 AUDIO
    TITLE "17:cjc029_6912"
    INDEX 01 00:10:57
  TRACK 15 AUDIO
    TITLE "0:"
    INDEX 01 00:12:50
  TRACK 16 AUDIO
    TITLE "16:cjc029_6913"
    INDEX 01 00:12:58
  TRACK 17 AUDIO
    TITLE "0:"
    INDEX 01 00:13:55
  TRACK 18 AUDIO
    TITLE "17:cjc029_6914"
    INDEX 01 00:14:43
  TRACK 19 AUDIO
    TITLE "0:"
    INDEX 01 00:18:44
  TRACK 20 AUDIO
    TITLE "16:cjc029_6915"
    INDEX 01 00:18:48
  TRACK 21 AUDIO
    TITLE "0:"
    INDEX 01 00:19:50
  TRACK 22 AUDIO
    TITLE "17:cjc029_6916"
    INDEX 01 00:20:36
  TRACK 23 AUDIO
    TITLE "0:"
    INDEX 01 00:21:62
  TRACK 24 AUDIO
    TITLE "16:cjc029_6917"
    INDEX 01 00:21:72
  TRACK 25 AUDIO
    TITLE "0:"
    INDEX 01 00:22:70
  TRACK 26 AUDIO
    TITLE "17:cjc029_6918"
    INDEX 01 00:23:55
  TRACK 27 AUDIO
    TITLE "0:"
    INDEX 01 00:24:43
  TRACK 28 AUDIO
    TITLE "16:cjc029_6919"
    INDEX 01 00:24:47
  TRACK 29 AUDIO
    TITLE "0:"
    INDEX 01 00:25:45
  TRACK 30 AUDIO
    TITLE "17:cjc029_6920"
    INDEX 01 00:26:30
  TRACK 31 AUDIO
    TITLE "0:"
    INDEX 01 00:27:47
  TRACK 32 AUDIO
    TITLE "16:cjc029_6921"
    INDEX 01 00:27:57
  TRACK 33 AUDIO
    TITLE "0:"
    INDEX 01 00:28:59
  TRACK 34 AUDIO
    TITLE "17:cjc029_6922"
    INDEX 01 00:29:42
  TRACK 35 AUDIO
    TITLE "0:"
    INDEX 01 00:32:50
  TRACK 36 AUDIO
    TITLE "16:cjc029_6923"
    INDEX 01 00:32:54
  TRACK 37 AUDIO
    TITLE "0:"
    INDEX 01 00:33:50
  TRACK 38 AUDIO
    TITLE "17:cjc029_6924"
    INDEX 01 00:34:36
  TRACK 39 AUDIO
    TITLE "0:"
    INDEX 01 00:36:29
  TRACK 40 AUDIO
    TITLE "16:cjc029_6925"
    INDEX 01 00:36:35
  TRACK 41 AUDIO
    TITLE "0:"
    INDEX 01 00:37:50
  TRACK 42 AUDIO
    TITLE "17:cjc029_6926"
    INDEX 01 00:38:35
  TRACK 43 AUDIO
    TITLE "0:"
    INDEX 01 00:39:54
  TRACK 44 AUDIO
    TITLE "16:cjc029_6927"
    INDEX 01 00:39:60
  TRACK 45 AUDIO
    TITLE "0:"
    INDEX 01 00:40:68
  TRACK 46 AUDIO
    TITLE "17:cjc029_6928"
    INDEX 01 00:41:55
  TRACK 47 AUDIO
    TITLE "0:"
    INDEX 01 00:42:59
  TRACK 48 AUDIO
    TITLE "16:cjc029_6929"
    INDEX 01 00:42:65
  TRACK 49 AUDIO
    TITLE "0:"
    INDEX 01 00:43:68
  TRACK 50 AUDIO
    TITLE "17:cjc029_6930"
    INDEX 01 00:44:56
  TRACK 51 AUDIO
    TITLE "0:"
    INDEX 01 00:45:61
  TRACK 52 AUDIO
    TITLE "16:cjc029_6931"
    INDEX 01 00:45:69
  TRACK 53 AUDIO
    TITLE "0:"
    INDEX 01 00:47:01
  TRACK 54 AUDIO
    TITLE "17:cjc029_6932"
    INDEX 01 00:47:62
  TRACK 55 AUDIO
    TITLE "0:"
    INDEX 01 00:49:27
  TRACK 56 AUDIO
    TITLE "16:cjc029_6933"
    INDEX 01 00:49:33
  TRACK 57 AUDIO
    TITLE "0:"
    INDEX 01 00:50:44
  TRACK 58 AUDIO
    TITLE "17:cjc029_6934"
    INDEX 01 00:51:26
  TRACK 59 AUDIO
    TITLE "0:"
    INDEX 01 00:52:41
  TRACK 60 AUDIO
    TITLE "16:cjc029_6935"
    INDEX 01 00:52:47
  TRACK 61 AUDIO
    TITLE "0:"
    INDEX 01 00:53:68
  TRACK 62 AUDIO
    TITLE "17:cjc029_6936"
    INDEX 01 00:54:54
  TRACK 63 AUDIO
    TITLE "0:"
    INDEX 01 00:55:71
  TRACK 64 AUDIO
    TITLE "16:cjc029_6937"
    INDEX 01 00:56:04
  TRACK 65 AUDIO
    TITLE "0:"
    INDEX 01 00:57:13
